<svg viewBox="0 0 120 120" fill="none" xmlns="http://www.w3.org/2000/svg"><rect width="120" height="120" rx="36" fill="#141414"/><path d="M78.46 83.16V47.92c0-2.34.5-4.4 1.53-6.18a11.44 11.44 0 0 1 4.33-4.21A13.22 13.22 0 0 1 90.76 36c1.87 0 3.46.32 4.78.96 1.32.63 2.55 1.55 3.7 2.74l-4.53 4.52a6.37 6.37 0 0 0-1.66-1.21c-.6-.3-1.36-.45-2.3-.45-1.7 0-3 .47-3.94 1.4-.9.9-1.34 2.2-1.34 3.9v35.3h-7.01Zm-7.33-24.85v-6.38h23.58v6.38H71.13ZM55.23 83.16c-3.06 0-5.82-.68-8.28-2.04a15.97 15.97 0 0 1-5.8-5.74 15.98 15.98 0 0 1-2.1-8.15c0-3.02.7-5.72 2.1-8.1 1.4-2.42 3.29-4.33 5.67-5.73 2.42-1.4 5.1-2.1 8.03-2.1 2.84 0 5.35.65 7.52 1.97a13.77 13.77 0 0 1 5.16 5.42 15.87 15.87 0 0 1 1.78 9.43c-.04.51-.12 1.08-.25 1.72H43.95V64.1h21.48l-2.62 2.3a11.7 11.7 0 0 0-1.08-4.72A6.78 6.78 0 0 0 59 58.75a8.25 8.25 0 0 0-4.27-1.02 9.1 9.1 0 0 0-4.65 1.15A7.8 7.8 0 0 0 47 62.13c-.72 1.36-1.08 3-1.08 4.9 0 1.92.38 3.6 1.14 5.04a8.3 8.3 0 0 0 3.25 3.38 9.95 9.95 0 0 0 4.85 1.15c1.57 0 3.01-.28 4.33-.83a9.05 9.05 0 0 0 3.44-2.42l4.46 4.52A14.3 14.3 0 0 1 62 81.82c-2.13.9-4.38 1.34-6.76 1.34ZM16 83.16V51.93h7.01v31.23H16Zm7.01-17.65-2.42-1.21c0-3.87.85-7 2.55-9.37 1.74-2.42 4.35-3.63 7.84-3.63 1.53 0 2.9.27 4.14.82a9.98 9.98 0 0 1 3.44 2.68l-4.59 4.72a4.83 4.83 0 0 0-1.85-1.28 6.7 6.7 0 0 0-2.35-.38c-1.96 0-3.57.62-4.85 1.85-1.27 1.23-1.91 3.16-1.91 5.8Z" fill="#fff"/><circle cx="100.21" cy="79.09" r="3.92" fill="#fff"/></svg>
