<svg viewBox="0 0 347 100" fill="none" xmlns="http://www.w3.org/2000/svg"><path d="M0 48.3c0-17.08 0-25.63 3.38-32.13a30 30 0 0 1 12.8-12.8C22.67 0 31.21 0 48.3 0h3.4c17.08 0 25.63 0 32.13 3.38a30 30 0 0 1 12.8 12.8C100 22.67 100 31.21 100 48.3v3.4c0 17.08 0 25.63-3.38 32.13a30 30 0 0 1-12.8 12.8C77.33 100 68.79 100 51.7 100h-3.4c-17.08 0-25.63 0-32.13-3.38a30 30 0 0 1-12.8-12.8C0 77.33 0 68.79 0 51.7v-3.4Z" fill="#141414"/><path d="M65.38 69.3V39.93c0-1.95.43-3.66 1.28-5.15a9.54 9.54 0 0 1 3.6-3.5A11.02 11.02 0 0 1 75.64 30c1.56 0 2.89.26 3.98.8 1.1.53 2.13 1.29 3.09 2.28l-3.78 3.77a5.3 5.3 0 0 0-1.38-1 4.28 4.28 0 0 0-1.9-.38c-1.42 0-2.52.39-3.3 1.17-.74.74-1.12 1.82-1.12 3.24V69.3h-5.84Zm-6.1-20.71v-5.31h19.64v5.3H59.27ZM46.02 69.3c-2.55 0-4.85-.57-6.9-1.7a13.3 13.3 0 0 1-4.83-4.78 13.32 13.32 0 0 1-1.76-6.8c0-2.51.59-4.76 1.76-6.74A13.02 13.02 0 0 1 39 44.5a13.11 13.11 0 0 1 6.7-1.75c2.37 0 4.46.54 6.26 1.64 1.84 1.1 3.28 2.6 4.3 4.52a13.22 13.22 0 0 1 1.28 9.29H36.62v-4.78h17.9l-2.18 1.91a9.74 9.74 0 0 0-.9-3.93 5.65 5.65 0 0 0-2.28-2.44 6.88 6.88 0 0 0-3.56-.85c-1.49 0-2.78.32-3.88.96a6.5 6.5 0 0 0-2.55 2.7c-.6 1.14-.9 2.5-.9 4.1 0 1.59.32 2.98.96 4.19a6.91 6.91 0 0 0 2.7 2.81 8.3 8.3 0 0 0 4.04.96c1.31 0 2.51-.23 3.61-.7a7.54 7.54 0 0 0 2.87-2l3.72 3.76a11.92 11.92 0 0 1-4.52 3.3 14.39 14.39 0 0 1-5.63 1.1ZM13.33 69.3V43.28h5.85V69.3h-5.85Zm5.85-14.71-2.02-1.01c0-3.22.7-5.82 2.12-7.8 1.45-2.03 3.63-3.03 6.53-3.03 1.28 0 2.43.23 3.46.69a8.32 8.32 0 0 1 2.86 2.23l-3.82 3.93c-.46-.5-.97-.85-1.54-1.07a5.58 5.58 0 0 0-1.96-.31c-1.63 0-2.98.5-4.04 1.54-1.06 1.02-1.6 2.63-1.6 4.83ZM86.78 65.9a3.26 3.26 0 1 1-6.53 0 3.26 3.26 0 0 1 6.53 0Z" fill="#fff"/><path d="M325.11 81.67c-3.89 0-7.42-.92-10.58-2.75a21.56 21.56 0 0 1-7.58-7.58 20.74 20.74 0 0 1-2.75-10.59c0-3.89.91-7.39 2.75-10.5a21.1 21.1 0 0 1 7.58-7.41A20.26 20.26 0 0 1 325.1 40c3.95 0 7.5.92 10.67 2.75a20.25 20.25 0 0 1 7.5 7.5 19.83 19.83 0 0 1 2.83 10.5c0 3.9-.94 7.42-2.83 10.59a20.9 20.9 0 0 1-7.5 7.58 20.9 20.9 0 0 1-10.67 2.75Zm0-8.83c2.28 0 4.28-.5 6-1.5A10.58 10.58 0 0 0 335.2 67c1-1.83 1.5-3.91 1.5-6.25 0-2.33-.5-4.39-1.5-6.16a11.25 11.25 0 0 0-10.08-5.75c-2.22 0-4.22.52-6 1.58a10.9 10.9 0 0 0-4.08 4.17 12.94 12.94 0 0 0-1.42 6.16c0 2.34.47 4.42 1.42 6.25 1 1.84 2.36 3.28 4.08 4.34 1.78 1 3.78 1.5 6 1.5ZM282.5 80.83V24.17h9.18v56.66h-9.17Zm-9.57-31.66v-8.34h28.33v8.34h-28.33ZM250.68 80.83V35.58a16 16 0 0 1 2-8.08 14.97 14.97 0 0 1 5.66-5.5 17.3 17.3 0 0 1 8.42-2c2.44 0 4.53.42 6.25 1.25 1.72.83 3.33 2.03 4.83 3.58l-5.91 5.92a8.34 8.34 0 0 0-2.17-1.58 6.7 6.7 0 0 0-3-.59c-2.22 0-3.95.62-5.17 1.84-1.16 1.16-1.75 2.86-1.75 5.08v45.33h-9.16Zm-9.59-31.66v-8.34h30.84v8.34h-30.84ZM220.3 81.67c-4 0-7.61-.89-10.83-2.67a20.88 20.88 0 0 1-7.59-7.5 20.9 20.9 0 0 1-2.75-10.66c0-3.95.92-7.48 2.75-10.59a20.44 20.44 0 0 1 7.42-7.5A20.58 20.58 0 0 1 219.8 40c3.72 0 7 .86 9.83 2.59a18 18 0 0 1 6.75 7.08A20.74 20.74 0 0 1 238.72 62c-.06.67-.17 1.42-.34 2.25h-32.83v-7.5h28.08l-3.41 3a15.3 15.3 0 0 0-1.42-6.16 8.87 8.87 0 0 0-3.58-3.84 10.8 10.8 0 0 0-5.59-1.33c-2.33 0-4.36.5-6.08 1.5a10.2 10.2 0 0 0-4 4.25 13.52 13.52 0 0 0-1.42 6.42c0 2.5.5 4.69 1.5 6.58 1 1.89 2.42 3.36 4.25 4.42 1.84 1 3.95 1.5 6.34 1.5 2.05 0 3.94-.37 5.66-1.09a11.83 11.83 0 0 0 4.5-3.16l5.84 5.91c-1.95 2.28-4.3 4-7.09 5.17a22.57 22.57 0 0 1-8.83 1.75ZM159.58 56.08v-7.92h14.75c2.95 0 5.22-.75 6.84-2.25 1.66-1.55 2.5-3.69 2.5-6.41 0-2.45-.8-4.5-2.42-6.17-1.61-1.67-3.89-2.5-6.83-2.5h-14.84V22.5h15.25c3.67 0 6.9.75 9.67 2.25a15.59 15.59 0 0 1 6.42 6 15.9 15.9 0 0 1 2.33 8.58c0 3.39-.78 6.33-2.33 8.83A15.22 15.22 0 0 1 184.5 54c-2.78 1.39-6 2.08-9.67 2.08h-15.25ZM153 80.83V22.5h9.58v58.33H153Zm32 0L164.58 55.5l8.92-3.25 23.58 28.58H185Z" fill="#000"/></svg>
